<?xml version="1.0" encoding="UTF-8"?>
<svg xmlns="http://www.w3.org/2000/svg" width="1200" height="720" viewBox="0 0 1200 720" role="img" aria-label="1. Balance neto divergente">
  <defs>
    <filter id="shadow" x="-10%" y="-10%" width="120%" height="130%">
      <feDropShadow dx="0" dy="16" stdDeviation="18" flood-color="#0f172a" flood-opacity="0.08"/>
    </filter>
    <linearGradient id="greenArea" x1="0" y1="0" x2="0" y2="1">
      <stop offset="0" stop-color="#10b981" stop-opacity="0.34"/>
      <stop offset="1" stop-color="#10b981" stop-opacity="0.04"/>
    </linearGradient>
    <linearGradient id="redArea" x1="0" y1="0" x2="0" y2="1">
      <stop offset="0" stop-color="#ef4444" stop-opacity="0.06"/>
      <stop offset="1" stop-color="#ef4444" stop-opacity="0.32"/>
    </linearGradient>
    <linearGradient id="fanBand" x1="0" y1="0" x2="0" y2="1">
      <stop offset="0" stop-color="#22c55e" stop-opacity="0.22"/>
      <stop offset="1" stop-color="#f97316" stop-opacity="0.18"/>
    </linearGradient>
  </defs>
  <rect width="1200" height="720" fill="#f8fafc"/>
  <rect x="44" y="40" width="1112" height="632" rx="8" fill="#ffffff" filter="url(#shadow)"/>
  <text x="82" y="92" font-family="Inter, Arial, sans-serif" font-size="30" font-weight="760" fill="#0f172a">1. Balance neto divergente</text>
  <text x="82" y="124" font-family="Inter, Arial, sans-serif" font-size="15" fill="#64748b">La decisión se lee por color: verde si la cartera supera el coste hipotecario, rojo si no.</text>
  <line x1="110" y1="150" x2="1040" y2="150" stroke="#e2e8f0" stroke-width="1"/><line x1="110" y1="255" x2="1040" y2="255" stroke="#e2e8f0" stroke-width="1"/><line x1="110" y1="360" x2="1040" y2="360" stroke="#e2e8f0" stroke-width="1"/><line x1="110" y1="465" x2="1040" y2="465" stroke="#e2e8f0" stroke-width="1"/><line x1="110" y1="570" x2="1040" y2="570" stroke="#e2e8f0" stroke-width="1"/><line x1="110" y1="150" x2="110" y2="570" stroke="#cbd5e1"/><line x1="110" y1="570" x2="1040" y2="570" stroke="#cbd5e1"/>
  <text x="84" y="155" text-anchor="end" font-family="Inter, Arial" font-size="12" fill="#94a3b8">8k</text><text x="84" y="365" text-anchor="end" font-family="Inter, Arial" font-size="12" fill="#94a3b8">3k</text><text x="84" y="470" text-anchor="end" font-family="Inter, Arial" font-size="12" fill="#94a3b8">0k</text><text x="84" y="575" text-anchor="end" font-family="Inter, Arial" font-size="12" fill="#94a3b8">-2k</text><text x="110" y="602" text-anchor="middle" font-family="Inter, Arial" font-size="12" fill="#64748b">24 nov</text><text x="265" y="602" text-anchor="middle" font-family="Inter, Arial" font-size="12" fill="#64748b">22 dic</text><text x="420" y="602" text-anchor="middle" font-family="Inter, Arial" font-size="12" fill="#64748b">19 ene</text><text x="575" y="602" text-anchor="middle" font-family="Inter, Arial" font-size="12" fill="#64748b">16 feb</text><text x="730" y="602" text-anchor="middle" font-family="Inter, Arial" font-size="12" fill="#64748b">16 mar</text><text x="885" y="602" text-anchor="middle" font-family="Inter, Arial" font-size="12" fill="#64748b">13 abr</text><text x="1040" y="602" text-anchor="middle" font-family="Inter, Arial" font-size="12" fill="#64748b">11 may</text><line x1="110" y1="465" x2="1040" y2="465" stroke="#334155" stroke-width="1.4" stroke-dasharray="5 5"/><polygon points="110.0,465.0 187.5,465.0 265.0,465.0 342.5,452.4 420.0,399.9 497.5,351.6 575.0,383.1 652.5,304.6 730.0,276.8 807.5,302.9 885.0,250.0 962.5,213.8 1040.0,202.9 1040.0,465.0 962.5,465.0 885.0,465.0 807.5,465.0 730.0,465.0 652.5,465.0 575.0,465.0 497.5,465.0 420.0,465.0 342.5,465.0 265.0,465.0 187.5,465.0 110.0,465.0" fill="url(#greenArea)"/><polygon points="110.0,465.0 187.5,465.0 265.0,465.0 342.5,465.0 420.0,465.0 497.5,465.0 575.0,465.0 652.5,465.0 730.0,465.0 807.5,465.0 885.0,465.0 962.5,465.0 1040.0,465.0 1040.0,465.0 962.5,465.0 885.0,465.0 807.5,465.0 730.0,465.0 652.5,465.0 575.0,465.0 497.5,465.0 420.0,465.0 342.5,465.0 265.0,513.3 187.5,491.0 110.0,502.8" fill="url(#redArea)"/><path d="M 110.0 502.8 L 187.5 491.0 L 265.0 513.3 L 342.5 452.4 L 420.0 399.9 L 497.5 351.6 L 575.0 383.1 L 652.5 304.6 L 730.0 276.8 L 807.5 302.9 L 885.0 250.0 L 962.5 213.8 L 1040.0 202.9" fill="none" stroke="#0f766e" stroke-width="4" stroke-linejoin="round" stroke-linecap="round"/><path d="M 110.0 464.2 L 187.5 452.4 L 265.0 452.8 L 342.5 391.9 L 420.0 316.7 L 497.5 268.4 L 575.0 277.3 L 652.5 196.6 L 730.0 148.3 L 807.5 174.4 L 885.0 100.0 L 962.5 63.9 L 1040.0 53.4" fill="none" stroke="#10b981" stroke-width="1.7" opacity="0.42"/><path d="M 110.0 426.4 L 148.8 426.4 L 148.8 426.4 L 187.5 426.4 L 226.3 426.4 L 226.3 404.5 L 265.0 404.5 L 303.8 404.5 L 303.8 404.5 L 342.5 404.5 L 381.3 404.5 L 381.3 381.8 L 420.0 381.8 L 458.8 381.8 L 458.8 381.8 L 497.5 381.8 L 536.3 381.8 L 536.3 359.2 L 575.0 359.2 L 613.8 359.2 L 613.8 359.2 L 652.5 359.2 L 691.3 359.2 L 691.3 336.5 L 730.0 336.5 L 768.8 336.5 L 768.8 336.5 L 807.5 336.5 L 846.3 336.5 L 846.3 315.1 L 885.0 315.1 L 923.8 315.1 L 923.8 315.1 L 962.5 315.1 L 1001.3 315.1 L 1001.3 315.5 L 1040.0 315.5" fill="none" stroke="#ef4444" stroke-width="1.7" opacity="0.42" stroke-dasharray="6 6"/><g><circle cx="770" cy="112" r="5" fill="#0f766e"/><text x="782" y="117" font-family="Inter, Arial" font-size="13" fill="#334155">Balance neto</text></g><g><circle cx="890" cy="112" r="5" fill="#10b981"/><text x="902" y="117" font-family="Inter, Arial" font-size="13" fill="#334155">Beneficio cartera</text></g><g><circle cx="1030" cy="112" r="5" fill="#ef4444"/><text x="1042" y="117" font-family="Inter, Arial" font-size="13" fill="#334155">Coste hipoteca</text></g><circle cx="1040" cy="202.92000000000002" r="7" fill="#0f766e" stroke="#fff" stroke-width="3"/><line x1="1037" y1="202.92000000000002" x2="948" y2="154.92000000000002" stroke="#0f766e" stroke-width="1.5"/><rect x="790" y="116.92000000000002" width="154" height="58" rx="8" fill="#ecfdf5" stroke="#a7f3d0"/>
           <text x="806" y="140.92000000000002" font-family="Inter, Arial" font-size="12" font-weight="700" fill="#047857">VENTAJA ACTUAL</text>
           <text x="806" y="166.92000000000002" font-family="Inter, Arial" font-size="24" font-weight="780" fill="#065f46">+6.240 €</text>
  <g>
    <rect x="914" y="574" width="214" height="82" rx="8" fill="#f8fafc" stroke="#e2e8f0"/>
    <text x="932" y="602" font-family="Inter, Arial" font-size="12" font-weight="700" fill="#64748b" letter-spacing="0.04em">LECTURA</text>
    <text x="932" y="632" font-family="Inter, Arial" font-size="26" font-weight="760" fill="#047857">Gano</text>
  </g><text x="82" y="630" font-family="Inter, Arial" font-size="14" fill="#64748b">Idea: la zona verde/roja dice directamente si mantener la inversión compensa frente a amortizar.</text>
</svg>