<?xml version="1.0" encoding="UTF-8"?>
<svg xmlns="http://www.w3.org/2000/svg" width="1200" height="720" viewBox="0 0 1200 720" role="img" aria-label="3. Componentes de cartera vs hipoteca">
  <defs>
    <filter id="shadow" x="-10%" y="-10%" width="120%" height="130%">
      <feDropShadow dx="0" dy="16" stdDeviation="18" flood-color="#0f172a" flood-opacity="0.08"/>
    </filter>
    <linearGradient id="greenArea" x1="0" y1="0" x2="0" y2="1">
      <stop offset="0" stop-color="#10b981" stop-opacity="0.34"/>
      <stop offset="1" stop-color="#10b981" stop-opacity="0.04"/>
    </linearGradient>
    <linearGradient id="redArea" x1="0" y1="0" x2="0" y2="1">
      <stop offset="0" stop-color="#ef4444" stop-opacity="0.06"/>
      <stop offset="1" stop-color="#ef4444" stop-opacity="0.32"/>
    </linearGradient>
    <linearGradient id="fanBand" x1="0" y1="0" x2="0" y2="1">
      <stop offset="0" stop-color="#22c55e" stop-opacity="0.22"/>
      <stop offset="1" stop-color="#f97316" stop-opacity="0.18"/>
    </linearGradient>
  </defs>
  <rect width="1200" height="720" fill="#f8fafc"/>
  <rect x="44" y="40" width="1112" height="632" rx="8" fill="#ffffff" filter="url(#shadow)"/>
  <text x="82" y="92" font-family="Inter, Arial, sans-serif" font-size="30" font-weight="760" fill="#0f172a">3. Componentes de cartera vs hipoteca</text>
  <text x="82" y="124" font-family="Inter, Arial, sans-serif" font-size="15" fill="#64748b">El beneficio neto se descompone por activo/categoría y se compara contra la línea de coste.</text>
  <line x1="110" y1="150" x2="1040" y2="150" stroke="#e2e8f0" stroke-width="1"/><line x1="110" y1="255" x2="1040" y2="255" stroke="#e2e8f0" stroke-width="1"/><line x1="110" y1="360" x2="1040" y2="360" stroke="#e2e8f0" stroke-width="1"/><line x1="110" y1="465" x2="1040" y2="465" stroke="#e2e8f0" stroke-width="1"/><line x1="110" y1="570" x2="1040" y2="570" stroke="#e2e8f0" stroke-width="1"/><line x1="110" y1="150" x2="110" y2="570" stroke="#cbd5e1"/><line x1="110" y1="570" x2="1040" y2="570" stroke="#cbd5e1"/>
  <text x="84" y="155" text-anchor="end" font-family="Inter, Arial" font-size="12" fill="#94a3b8">9k</text><text x="84" y="365" text-anchor="end" font-family="Inter, Arial" font-size="12" fill="#94a3b8">4k</text><text x="84" y="553.3505154639175" text-anchor="end" font-family="Inter, Arial" font-size="12" fill="#94a3b8">0k</text><text x="84" y="575" text-anchor="end" font-family="Inter, Arial" font-size="12" fill="#94a3b8">0k</text><text x="110" y="602" text-anchor="middle" font-family="Inter, Arial" font-size="12" fill="#64748b">nov</text><text x="242.85714285714286" y="602" text-anchor="middle" font-family="Inter, Arial" font-size="12" fill="#64748b">dic</text><text x="375.7142857142857" y="602" text-anchor="middle" font-family="Inter, Arial" font-size="12" fill="#64748b">ene</text><text x="508.57142857142856" y="602" text-anchor="middle" font-family="Inter, Arial" font-size="12" fill="#64748b">feb</text><text x="641.4285714285714" y="602" text-anchor="middle" font-family="Inter, Arial" font-size="12" fill="#64748b">mar</text><text x="774.2857142857143" y="602" text-anchor="middle" font-family="Inter, Arial" font-size="12" fill="#64748b">abr</text><text x="907.1428571428571" y="602" text-anchor="middle" font-family="Inter, Arial" font-size="12" fill="#64748b">may</text><text x="1040" y="602" text-anchor="middle" font-family="Inter, Arial" font-size="12" fill="#64748b">jun</text><polygon points="110.0,548.4 242.9,530.2 375.7,511.1 508.6,481.2 641.4,431.4 774.3,388.1 907.1,351.3 1040.0,314.5 1040.0,548.4 907.1,548.4 774.3,548.4 641.4,548.4 508.6,548.4 375.7,548.4 242.9,548.4 110.0,548.4" fill="#6366f1" opacity="0.58"/><polygon points="110.0,548.4 242.9,523.2 375.7,495.5 508.6,458.7 641.4,399.0 774.3,347.9 907.1,300.2 1040.0,253.9 1040.0,314.5 907.1,351.3 774.3,388.1 641.4,431.4 508.6,481.2 375.7,511.1 242.9,530.2 110.0,548.4" fill="#14b8a6" opacity="0.58"/><polygon points="110.0,548.4 242.9,528.4 375.7,487.7 508.6,438.8 641.4,366.9 774.3,302.4 907.1,237.5 1040.0,177.7 1040.0,253.9 907.1,300.2 774.3,347.9 641.4,399.0 508.6,458.7 375.7,495.5 242.9,523.2 110.0,548.4" fill="#f59e0b" opacity="0.62"/><polygon points="110.0,548.4 242.9,526.7 375.7,484.7 508.6,434.7 641.4,361.3 774.3,295.5 907.1,229.2 1040.0,168.2 1040.0,177.7 907.1,237.5 774.3,302.4 641.4,366.9 508.6,438.8 375.7,487.7 242.9,528.4 110.0,548.4" fill="#94a3b8" opacity="0.58"/><path d="M 110.0 508.5 L 176.4 508.5 L 176.4 486.0 L 242.9 486.0 L 309.3 486.0 L 309.3 462.6 L 375.7 462.6 L 442.1 462.6 L 442.1 439.2 L 508.6 439.2 L 575.0 439.2 L 575.0 415.9 L 641.4 415.9 L 707.9 415.9 L 707.9 393.8 L 774.3 393.8 L 840.7 393.8 L 840.7 371.7 L 907.1 371.7 L 973.6 371.7 L 973.6 349.6 L 1040.0 349.6" fill="none" stroke="#ef4444" stroke-width="4" stroke-linecap="round" stroke-linejoin="round"/><path d="M 110.0 548.4 L 242.9 526.7 L 375.7 484.7 L 508.6 434.7 L 641.4 361.3 L 774.3 295.5 L 907.1 229.2 L 1040.0 168.2" fill="none" stroke="#0f172a" stroke-width="2.5" opacity="0.72"/><g><circle cx="690" cy="112" r="5" fill="#6366f1"/><text x="702" y="117" font-family="Inter, Arial" font-size="13" fill="#334155">Indexa</text></g><g><circle cx="780" cy="112" r="5" fill="#14b8a6"/><text x="792" y="117" font-family="Inter, Arial" font-size="13" fill="#334155">MyInvestor</text></g><g><circle cx="902" cy="112" r="5" fill="#f59e0b"/><text x="914" y="117" font-family="Inter, Arial" font-size="13" fill="#334155">Oro</text></g><g><circle cx="972" cy="112" r="5" fill="#94a3b8"/><text x="984" y="117" font-family="Inter, Arial" font-size="13" fill="#334155">Cash</text></g><g><circle cx="1044" cy="112" r="5" fill="#ef4444"/><text x="1056" y="117" font-family="Inter, Arial" font-size="13" fill="#334155">Hipoteca</text></g><rect x="82" y="589" width="520" height="46" rx="8" fill="#f8fafc" stroke="#e2e8f0"/>
           <text x="104" y="618" font-family="Inter, Arial" font-size="15" fill="#334155">La pregunta cambia de “cuánto gano” a “qué activo está pagando el coste”.</text>
  
</svg>